<svg width="44" height="43" fill="none" xmlns="http://www.w3.org/2000/svg"><path d="M32.04 17.11c.116-.47 0-.86-.704-.86H29.03c-.586 0-.86.313-1.015.664 0 0-1.172 2.852-2.813 4.727-.547.507-.781.703-1.094.703-.117 0-.351-.196-.351-.664v-4.57c0-.587-.156-.86-.664-.86H19.5c-.39 0-.586.273-.586.547 0 .547.82.664.898 2.226v3.399c0 .742-.117.898-.43.898-.78 0-2.655-2.89-3.788-6.172-.235-.625-.469-.898-1.055-.898h-2.305c-.625 0-.78.313-.78.664 0 .625.78 3.633 3.632 7.656 1.914 2.735 4.61 4.18 7.031 4.18 1.445 0 1.64-.313 1.64-.86 0-2.617-.116-2.89.587-2.89.351 0 .937.195 2.304 1.523 1.563 1.563 1.836 2.227 2.696 2.227h2.304c.665 0 .977-.313.782-.977-.43-1.328-3.36-4.14-3.516-4.335-.352-.43-.234-.625 0-1.016 0 0 2.813-3.985 3.125-5.313z" fill="#000"/><path d="M.5 0v-1h-1v1h1zm43 0h1v-1h-1v1zm0 43v1h1v-1h-1zm-43 0h-1v1h1v-1zm0-42h43v-2H.5v2zm42-1v43h2V0h-2zm1 42H.5v2h43v-2zm-42 1V0h-2v43h2z" fill="#7C7C7C"/></svg>