<svg width="44" height="43" fill="none" xmlns="http://www.w3.org/2000/svg"><path d="M32.195 16.383a2.657 2.657 0 00-1.875-1.914C28.64 14 22 14 22 14s-6.68 0-8.36.469a2.657 2.657 0 00-1.874 1.914c-.47 1.64-.47 5.156-.47 5.156s0 3.477.47 5.156c.234.938.976 1.64 1.875 1.875C15.32 29 22 29 22 29s6.64 0 8.32-.43a2.605 2.605 0 001.875-1.875c.47-1.68.47-5.156.47-5.156s0-3.516-.47-5.156zm-12.383 8.32v-6.328l5.547 3.164-5.547 3.164z" fill="#000"/><path d="M.5 0v-1h-1v1h1zm43 0h1v-1h-1v1zm0 43v1h1v-1h-1zm-43 0h-1v1h1v-1zm0-42h43v-2H.5v2zm42-1v43h2V0h-2zm1 42H.5v2h43v-2zm-42 1V0h-2v43h2z" fill="#7C7C7C"/></svg>